<svg width="36" height="36" viewBox="0 0 36 36" fill="none" xmlns="http://www.w3.org/2000/svg">
<g clip-path="url(#clip0_51_550)">
<path d="M35.9959 30.3758V8.65102C36.0014 8.59862 36.0014 8.54578 35.9959 8.49339C35.9993 8.45141 35.9993 8.40921 35.9959 8.36724L35.9171 8.24109L35.8225 8.11494H35.7121L35.5703 8.02035C34.701 7.71366 33.8171 7.45057 32.9217 7.23205V3.54294C32.9217 3.10759 32.5687 2.75464 32.1334 2.75464C26.5495 2.81154 21.3198 5.49945 18.0233 10.0067C14.7585 5.49561 9.5447 2.80386 3.97629 2.75464C3.54094 2.75464 3.188 3.10759 3.188 3.54294V7.12172C2.28641 7.3429 1.39709 7.61131 0.523659 7.92576L0.366029 8.02035H0.255622L0.161029 8.1465L0.0821774 8.27264C0.0788519 8.31462 0.0788519 8.35682 0.0821774 8.39879C0.0488483 8.45311 0.0223919 8.51134 0.00332552 8.57224V30.3915C-0.00110851 30.4387 -0.00110851 30.4862 0.00332552 30.5334C0.0161103 30.5714 0.031925 30.6083 0.0506219 30.6437C0.0756003 30.6999 0.107377 30.7529 0.145215 30.8014V30.896L0.271363 30.9906L0.397511 31.0694H0.507845H0.69703H0.823178H0.965067C6.52882 29.1985 12.6422 29.9707 17.5661 33.1662L17.708 33.245H17.9445H18.1809H18.3228C23.2476 30.1103 29.3232 29.3632 34.8608 31.2113H35.0027H35.1288H35.318H35.4284L35.5703 31.1167L35.6806 31.0379V30.9275C35.8101 30.8642 35.9194 30.7659 35.9959 30.6437C35.9995 30.6018 35.9995 30.5596 35.9959 30.5176C36.0004 30.4704 36.0004 30.423 35.9959 30.3758ZM1.56418 29.3195V9.23431C2.05813 9.06612 2.58371 8.90849 3.1407 8.76135V24.716C3.13989 25.1513 3.49217 25.5048 3.92752 25.5057C3.94378 25.5057 3.96003 25.5052 3.97622 25.5043L3.99196 25.52C8.06979 25.5187 11.9818 27.1345 14.8701 30.0132C10.6251 28.356 5.9586 28.1128 1.56418 29.3195ZM17.235 30.1866C14.1502 26.4326 9.63198 24.1449 4.78033 23.8804V4.34705C9.82811 4.68869 14.4304 7.35687 17.235 11.5676V30.1866ZM18.8273 30.2496V11.5676C21.6586 7.37756 26.2544 4.71655 31.2978 4.34697H31.3136V23.9434C26.4543 24.2126 21.9281 26.4986 18.8273 30.2496ZM34.4667 29.3195C30.0765 28.123 25.4182 28.3661 21.1764 30.0132C24.0767 27.1313 27.9974 25.5109 32.0861 25.5043C32.5215 25.5043 32.8744 25.1514 32.8744 24.716V8.76135C33.3999 8.89799 33.9307 9.05562 34.4668 9.23431V29.3195H34.4667Z" fill="#464550"/>
</g>
<defs>
<clipPath id="clip0_51_550">
<rect width="36" height="36" fill="white"/>
</clipPath>
</defs>
</svg>
