<svg width="36" height="36" viewBox="0 0 36 36" fill="none" xmlns="http://www.w3.org/2000/svg">
<path d="M10.6568 14.6904C10.526 14.5596 10.3446 14.4844 10.1597 14.4844C9.97475 14.4844 9.79341 14.5595 9.66256 14.6904C9.53178 14.8212 9.45654 15.0026 9.45654 15.1875C9.45654 15.3724 9.53178 15.5538 9.66256 15.6845C9.79334 15.8153 9.97475 15.8906 10.1597 15.8906C10.3446 15.8906 10.526 15.8154 10.6568 15.6845C10.7876 15.5538 10.8628 15.3724 10.8628 15.1875C10.8628 15.0026 10.7876 14.8212 10.6568 14.6904Z" fill="#464550"/>
<path d="M33.8903 0H5.90602C4.74291 0 3.79665 0.946262 3.79665 2.10937V13.7812C3.79665 14.9443 4.74291 15.8906 5.90602 15.8906H7.17164C7.55997 15.8906 7.87476 15.5757 7.87476 15.1874C7.87476 14.7992 7.55997 14.4843 7.17164 14.4843H5.90602C5.51832 14.4843 5.20289 14.1689 5.20289 13.7812V2.10937C5.20289 1.72167 5.51832 1.40624 5.90602 1.40624H33.8903C34.278 1.40624 34.5934 1.72167 34.5934 2.10937V13.7812C34.5934 14.1689 34.278 14.4843 33.8903 14.4843H29.1873C29.0008 14.4843 28.822 14.5584 28.6901 14.6903L26.3748 17.0056L24.0595 14.6903C23.9277 14.5584 23.7488 14.4843 23.5623 14.4843H18.079C18.0274 14.3516 17.9689 14.2206 17.9028 14.092C17.3993 13.1139 16.5424 12.3991 15.4899 12.0791L14.4734 11.77C14.1155 11.661 13.7349 11.8517 13.6077 12.2035L12.0103 16.6183C11.5673 17.8428 10.6934 18.8601 9.54988 19.4828L8.0504 20.2993C7.68189 19.852 7.12397 19.5663 6.50051 19.5663H2.00756C0.900559 19.5663 1.64656e-08 20.4669 1.64656e-08 21.5739V33.9922C-0.000140608 35.0992 0.900489 35.9999 2.00748 35.9999H6.50044C7.20033 35.9999 7.81731 35.6396 8.17675 35.0951L8.89422 35.3765C9.94904 35.7903 11.0585 36 12.1917 36H21.6788C23.1023 36 24.2603 34.842 24.2603 33.4185C24.2603 32.9473 24.1328 32.5056 23.9114 32.125C24.9587 31.7959 25.7205 30.8162 25.7205 29.6617C25.7205 29.1786 25.5868 28.7262 25.3549 28.3391C26.3575 27.9845 27.0779 27.0275 27.0779 25.9049C27.0779 24.7356 26.2962 23.7459 25.2282 23.4296C25.4454 23.0517 25.5702 22.6142 25.5702 22.1479C25.5702 20.7245 24.4122 19.5664 22.9887 19.5664H17.3505L18.139 17.2254C18.2864 16.7878 18.3561 16.3378 18.3514 15.8906H23.2711L25.8776 18.4972C26.015 18.6344 26.1949 18.7031 26.3748 18.7031C26.5548 18.7031 26.7348 18.6344 26.872 18.4972L29.4786 15.8906H33.8903C35.0534 15.8906 35.9997 14.9443 35.9997 13.7812V2.10937C35.9997 0.946262 35.0534 0 33.8903 0ZM7.10182 33.9922C7.10175 34.3238 6.83203 34.5936 6.50044 34.5936H2.00748C1.67589 34.5936 1.40617 34.3238 1.40617 33.9922V21.574C1.40617 21.2424 1.67589 20.9726 2.00748 20.9726H3.55084V29.6295C3.55084 30.0178 3.86563 30.3326 4.25396 30.3326C4.6423 30.3326 4.95708 30.0178 4.95708 29.6295V20.9726H6.50044C6.76305 20.9726 6.98629 21.1421 7.06807 21.3772C7.0739 21.4113 7.08234 21.445 7.09345 21.4784C7.09844 21.5096 7.10182 21.5413 7.10182 21.574V33.9922ZM22.9888 20.9725V20.9726C23.6369 20.9726 24.1641 21.4998 24.1641 22.1479C24.1641 22.7959 23.6369 23.3232 22.9888 23.3232H19.1743C18.786 23.3232 18.4712 23.6381 18.4712 24.0263C18.4712 24.4146 18.786 24.7294 19.1743 24.7294L24.4965 24.7296C25.1446 24.7296 25.6718 25.2568 25.6718 25.9049C25.6718 26.5529 25.1446 27.0802 24.4965 27.0802H19.1743C18.786 27.0802 18.4712 27.395 18.4712 27.7833C18.4712 28.1716 18.786 28.4864 19.1743 28.4864H23.1391C23.7871 28.4864 24.3143 29.0136 24.3143 29.6617C24.3143 30.3098 23.7871 30.837 23.1391 30.837H19.1743C18.786 30.837 18.4712 31.1518 18.4712 31.5401C18.4712 31.9284 18.786 32.2432 19.1743 32.2432H21.6789C22.3269 32.2432 22.8541 32.7705 22.8541 33.4186C22.8541 34.0666 22.3269 34.5938 21.6789 34.5938H12.1917C11.235 34.5938 10.2983 34.4166 9.40764 34.0674L8.50799 33.7146V21.6513L10.2223 20.7178C11.668 19.9306 12.7725 18.6447 13.3325 17.0968L14.7029 13.3096L15.0808 13.4245C15.7664 13.633 16.3245 14.0986 16.6525 14.7356C16.9804 15.3726 17.035 16.0975 16.8063 16.7765L15.7054 20.045C15.6332 20.2596 15.6687 20.4958 15.8007 20.6796C15.9328 20.8635 16.1453 20.9725 16.3718 20.9725H22.9888Z" fill="#464550"/>
<path d="M32.7796 6.8187C32.6464 6.4092 32.299 6.11635 31.8727 6.05454L30.629 5.87419L30.0725 4.74743C29.8818 4.36135 29.496 4.12158 29.0654 4.12158C29.0654 4.12158 29.0652 4.12158 29.0652 4.12158C28.6345 4.12172 28.2486 4.3617 28.0581 4.74793L27.5023 5.87504L26.2586 6.05609C25.8324 6.11818 25.4851 6.41117 25.3521 6.82081C25.2191 7.23038 25.3281 7.67159 25.6367 7.97218L26.5368 8.84911L26.3247 10.0878C26.252 10.5124 26.4232 10.9332 26.7718 11.1863C26.9687 11.3292 27.1989 11.4018 27.4307 11.4018C27.6093 11.4018 27.7889 11.3587 27.9548 11.2714L29.0671 10.6863L30.1796 11.2708C30.5608 11.4711 31.0141 11.4382 31.3625 11.185C31.7108 10.9317 31.8819 10.5107 31.809 10.0863L31.5962 8.84771L32.496 7.97021C32.804 7.66941 32.9128 7.2282 32.7796 6.8187ZM30.5076 7.94489C30.2429 8.20301 30.1223 8.57475 30.1849 8.93918L30.3257 9.75917L29.5889 9.37203C29.2615 9.20032 28.8708 9.20032 28.5438 9.37245L27.8074 9.75987L27.9478 8.93982C28.0103 8.57525 27.8894 8.20357 27.6245 7.9456L27.0285 7.36496L27.8519 7.24507C28.2179 7.19185 28.5339 6.96207 28.6974 6.63047L29.0655 5.88425L29.4339 6.63026C29.5977 6.96178 29.9139 7.19136 30.2798 7.24444L31.1032 7.36383L30.5076 7.94489Z" fill="#464550"/>
<path d="M23.8348 6.8187C23.7016 6.4092 23.3542 6.11642 22.9279 6.05454L21.6842 5.87419L21.1277 4.74743C20.937 4.36135 20.5512 4.12158 20.1206 4.12158C20.1206 4.12158 20.1204 4.12158 20.1203 4.12158C19.6897 4.12172 19.3037 4.3617 19.1133 4.748L18.5574 5.87504L17.3137 6.05609C16.8876 6.11818 16.5402 6.41117 16.4073 6.82081C16.2743 7.23038 16.3833 7.67159 16.6918 7.97218L17.592 8.84911L17.3798 10.0878C17.3071 10.5124 17.4785 10.9332 17.827 11.1863C18.0238 11.3292 18.254 11.4018 18.4859 11.4018C18.6645 11.4018 18.844 11.3587 19.0098 11.2714L20.1221 10.6863L21.2347 11.2708C21.616 11.4711 22.0691 11.4382 22.4176 11.185C22.7659 10.9317 22.937 10.5107 22.8641 10.0863L22.6513 8.84771L23.5511 7.97021C23.8593 7.66941 23.9681 7.22827 23.8348 6.8187ZM21.5628 7.94489C21.2981 8.20301 21.1775 8.57475 21.2401 8.93918L21.3809 9.75917L20.6441 9.3721C20.3167 9.20018 19.9259 9.20039 19.5989 9.37245L18.8625 9.75987L19.0029 8.93982C19.0654 8.57525 18.9445 8.20357 18.6796 7.9456L18.0836 7.36496L18.907 7.24507C19.2729 7.19185 19.5889 6.96214 19.7526 6.6304L20.1206 5.88418L20.489 6.63012C20.6527 6.96171 20.9689 7.19136 21.3349 7.24444L22.1584 7.36383L21.5628 7.94489Z" fill="#464550"/>
<path d="M14.89 6.8187C14.7568 6.4092 14.4093 6.11635 13.9832 6.05454L12.7395 5.87419L12.1829 4.74743C11.9923 4.36135 11.6064 4.12158 11.1759 4.12158C11.1758 4.12158 11.1756 4.12158 11.1756 4.12158C10.7449 4.12172 10.359 4.3617 10.1685 4.748L9.61267 5.87504L8.36898 6.05609C7.94275 6.11818 7.59547 6.41124 7.46244 6.82088C7.32948 7.23045 7.43853 7.67166 7.747 7.97218L8.64714 8.84911L8.435 10.0878C8.3623 10.5124 8.53365 10.9332 8.88212 11.1863C9.07893 11.3292 9.3092 11.4018 9.54102 11.4018C9.71961 11.4018 9.89912 11.3587 10.065 11.2714L11.1773 10.6863L12.2898 11.2708C12.671 11.4711 13.1243 11.4382 13.4727 11.185C13.821 10.9317 13.9921 10.5107 13.9192 10.0863L13.7064 8.84771L14.6062 7.97021C14.9145 7.66941 15.0232 7.22827 14.89 6.8187ZM12.618 7.94489C12.3533 8.20301 12.2327 8.57475 12.2953 8.93918L12.4361 9.75917L11.6993 9.3721C11.372 9.20018 10.9811 9.20039 10.6541 9.37245L9.91775 9.75987L10.0582 8.93961C10.1205 8.57518 9.99967 8.20364 9.73487 7.9456L9.13883 7.36496L9.96219 7.24507C10.3281 7.19185 10.6442 6.96214 10.8078 6.6304L11.1759 5.88418L11.5442 6.63012C11.7079 6.96171 12.0242 7.19136 12.3902 7.24444L13.2137 7.36383L12.618 7.94489Z" fill="#464550"/>
<path d="M4.25391 31.4548C3.86557 31.4548 3.55078 31.7697 3.55078 32.158V32.1689C3.55078 32.5572 3.86557 32.8721 4.25391 32.8721C4.64224 32.8721 4.95703 32.5572 4.95703 32.1689V32.158C4.95703 31.7697 4.64224 31.4548 4.25391 31.4548Z" fill="#464550"/>
</svg>
