<svg width="36" height="36" viewBox="0 0 36 36" fill="none" xmlns="http://www.w3.org/2000/svg">
<g clip-path="url(#clip0_51_483)">
<path d="M7.73389 8.85962C7.34576 8.85962 7.03076 9.17462 7.03076 9.56274C7.03076 9.95087 7.34576 10.2659 7.73389 10.2659C8.12201 10.2659 8.43701 9.95087 8.43701 9.56274C8.43701 9.17462 8.12201 8.85962 7.73389 8.85962Z" fill="#464550"/>
<path d="M33.1119 14.8731L32.0946 12.8384C31.7348 12.1189 31.012 11.6721 30.2079 11.6721H24.3271V6.75042C24.3271 5.58738 23.3809 4.64111 22.2178 4.64111H2.1093C0.946195 4.64111 0 5.58731 0 6.75042V25.0309C0 26.1939 0.946195 27.1402 2.1093 27.1402H4.21861C4.21861 28.2198 4.62677 29.2056 5.29622 29.9526H0.703125C0.314789 29.9526 0 30.2674 0 30.6557C0 31.044 0.314789 31.3588 0.703125 31.3588H35.2955C35.6838 31.3588 35.9986 31.044 35.9986 30.6557C35.9986 30.2674 35.6838 29.9526 35.2955 29.9526H33.5147C34.1842 29.2056 34.5923 28.2198 34.5923 27.1402C34.5923 27.1001 34.5904 27.0603 34.5893 27.0203C35.4092 26.7308 35.9985 25.9486 35.9985 25.0309V21.1442C35.9985 20.3237 36.161 21.0897 33.1119 14.8731ZM32.0485 15.8906L34.1578 20.1092H27.1395V15.8906H32.0485ZM1.40618 21.5154H2.81236V22.9216H1.40618V21.5154ZM8.43715 29.9526C6.88641 29.9526 5.62479 28.6909 5.62479 27.1402C5.62479 26.9487 5.64377 26.7602 5.68174 26.5769C5.94619 25.2737 7.10501 24.3278 8.43715 24.3278C9.76929 24.3278 10.9282 25.2736 11.1926 26.5769C11.1928 26.5779 11.193 26.5788 11.1932 26.5798C11.2306 26.7601 11.2495 26.9487 11.2495 27.1402C11.2495 28.6909 9.98789 29.9526 8.43715 29.9526ZM8.43715 22.9216C6.63567 22.9216 5.04584 24.0756 4.45971 25.734H2.1093C1.7216 25.734 1.40618 25.4185 1.40618 25.0308V24.3277H3.51548C3.90382 24.3277 4.21861 24.0128 4.21861 23.6246V20.8122C4.21861 20.424 3.90382 20.1091 3.51548 20.1091H1.40618V6.75042C1.40618 6.36272 1.7216 6.04729 2.1093 6.04729H22.2178C22.6055 6.04729 22.921 6.36272 22.921 6.75042C22.921 7.27347 22.921 24.0479 22.921 25.734H12.4142C11.8271 24.0748 10.2379 22.9216 8.43715 22.9216ZM11.5781 29.9526C12.2476 29.2056 12.6557 28.2198 12.6557 27.1402C13.1955 27.1402 25.9253 27.1402 26.1551 27.1402C26.1551 28.2198 26.5633 29.2056 27.2327 29.9526H11.5781ZM30.3737 29.9526C28.823 29.9526 27.5614 28.6909 27.5614 27.1402C27.5614 26.9487 27.5804 26.7602 27.6183 26.5769C27.8828 25.2737 29.0416 24.3278 30.3737 24.3278C31.7059 24.3278 32.8648 25.2736 33.1291 26.5769C33.1294 26.5779 33.1296 26.5788 33.1298 26.5798C33.1672 26.7601 33.1861 26.9487 33.1861 27.1402C33.1862 28.6909 31.9245 29.9526 30.3737 29.9526ZM34.5923 25.0309C34.5923 25.2648 34.4771 25.4717 34.301 25.5997C33.6772 24.0128 32.1254 22.9217 30.3737 22.9217C28.5723 22.9217 26.9824 24.0757 26.3963 25.734H24.3271V13.0783H30.2078C30.4758 13.0783 30.7168 13.2273 30.8367 13.4672L31.3454 14.4844H26.4364C26.0481 14.4844 25.7333 14.7993 25.7333 15.1876V20.8124C25.7333 21.2006 26.0481 21.5155 26.4364 21.5155H34.5923V25.0309Z" fill="#464550"/>
<path d="M19.4054 8.85962H10.5464C10.1581 8.85962 9.84326 9.17448 9.84326 9.56274C9.84326 9.95101 10.1581 10.2659 10.5464 10.2659H19.4054C19.7937 10.2659 20.1085 9.95101 20.1085 9.56274C20.1085 9.17448 19.7937 8.85962 19.4054 8.85962Z" fill="#464550"/>
<path d="M19.4056 11.6721H13.3589C12.9706 11.6721 12.6558 11.987 12.6558 12.3752C12.6558 12.7635 12.9706 13.0784 13.3589 13.0784H19.4056C19.7939 13.0784 20.1087 12.7635 20.1087 12.3752C20.1087 11.987 19.7938 11.6721 19.4056 11.6721Z" fill="#464550"/>
<path d="M30.374 25.7341C29.5985 25.7341 28.9678 26.365 28.9678 27.1403C28.9678 27.9157 29.5986 28.5465 30.374 28.5465C31.1494 28.5465 31.7801 27.9156 31.7801 27.1403C31.7801 26.3649 31.1494 25.7341 30.374 25.7341Z" fill="#464550"/>
<path d="M8.43694 25.7341C7.66154 25.7341 7.03076 26.365 7.03076 27.1403C7.03076 27.9157 7.66161 28.5465 8.43694 28.5465C9.21235 28.5465 9.84312 27.9156 9.84312 27.1403C9.84312 26.3649 9.21235 25.7341 8.43694 25.7341Z" fill="#464550"/>
</g>
<defs>
<clipPath id="clip0_51_483">
<rect width="36" height="36" fill="white"/>
</clipPath>
</defs>
</svg>
